<mxfile host="app.diagrams.net" agent="Mozilla/5.0 (Windows NT 10.0; Win64; x64) AppleWebKit/537.36 (KHTML, like Gecko) Chrome/129.0.0.0 Safari/537.36" version="24.7.17">
  <diagram id="C5RBs43oDa-KdzZeNtuy" name="Page-1">
    <mxGraphModel dx="809" dy="453" grid="1" gridSize="10" guides="1" tooltips="1" connect="1" arrows="1" fold="1" page="1" pageScale="1" pageWidth="3300" pageHeight="4681" math="0" shadow="0">
      <root>
        <mxCell id="WIyWlLk6GJQsqaUBKTNV-0" />
        <mxCell id="WIyWlLk6GJQsqaUBKTNV-1" parent="WIyWlLk6GJQsqaUBKTNV-0" />
        <mxCell id="-a_JBFkdTe1gn5dEIn_v-35" value="" style="rounded=0;whiteSpace=wrap;html=1;" vertex="1" parent="WIyWlLk6GJQsqaUBKTNV-1">
          <mxGeometry x="780" y="220" width="1560" height="1100" as="geometry" />
        </mxCell>
        <mxCell id="-a_JBFkdTe1gn5dEIn_v-36" value="Personnel" style="swimlane;fontStyle=3;align=center;verticalAlign=top;childLayout=stackLayout;horizontal=1;startSize=26;horizontalStack=0;resizeParent=1;resizeLast=0;collapsible=1;marginBottom=0;rounded=0;shadow=0;strokeWidth=1;fontSize=18;" vertex="1" parent="WIyWlLk6GJQsqaUBKTNV-1">
          <mxGeometry x="1404" y="530" width="230" height="138" as="geometry">
            <mxRectangle x="230" y="140" width="160" height="26" as="alternateBounds" />
          </mxGeometry>
        </mxCell>
        <mxCell id="-a_JBFkdTe1gn5dEIn_v-37" value="username" style="text;align=left;verticalAlign=top;spacingLeft=4;spacingRight=4;overflow=hidden;rotatable=0;points=[[0,0.5],[1,0.5]];portConstraint=eastwest;fontSize=15;" vertex="1" parent="-a_JBFkdTe1gn5dEIn_v-36">
          <mxGeometry y="26" width="230" height="26" as="geometry" />
        </mxCell>
        <mxCell id="-a_JBFkdTe1gn5dEIn_v-38" value="first_name" style="text;align=left;verticalAlign=top;spacingLeft=4;spacingRight=4;overflow=hidden;rotatable=0;points=[[0,0.5],[1,0.5]];portConstraint=eastwest;rounded=0;shadow=0;html=0;fontSize=15;" vertex="1" parent="-a_JBFkdTe1gn5dEIn_v-36">
          <mxGeometry y="52" width="230" height="26" as="geometry" />
        </mxCell>
        <mxCell id="-a_JBFkdTe1gn5dEIn_v-39" value="last_name" style="text;align=left;verticalAlign=top;spacingLeft=4;spacingRight=4;overflow=hidden;rotatable=0;points=[[0,0.5],[1,0.5]];portConstraint=eastwest;rounded=0;shadow=0;html=0;fontSize=15;" vertex="1" parent="-a_JBFkdTe1gn5dEIn_v-36">
          <mxGeometry y="78" width="230" height="26" as="geometry" />
        </mxCell>
        <mxCell id="-a_JBFkdTe1gn5dEIn_v-40" value="" style="line;html=1;strokeWidth=1;align=left;verticalAlign=middle;spacingTop=-1;spacingLeft=3;spacingRight=3;rotatable=0;labelPosition=right;points=[];portConstraint=eastwest;" vertex="1" parent="-a_JBFkdTe1gn5dEIn_v-36">
          <mxGeometry y="104" width="230" height="8" as="geometry" />
        </mxCell>
        <mxCell id="-a_JBFkdTe1gn5dEIn_v-41" value="Equipe" style="swimlane;fontStyle=3;align=center;verticalAlign=top;childLayout=stackLayout;horizontal=1;startSize=26;horizontalStack=0;resizeParent=1;resizeLast=0;collapsible=1;marginBottom=0;rounded=0;shadow=0;strokeWidth=1;fontSize=18;" vertex="1" parent="WIyWlLk6GJQsqaUBKTNV-1">
          <mxGeometry x="825" y="361" width="140" height="90" as="geometry">
            <mxRectangle x="230" y="140" width="160" height="26" as="alternateBounds" />
          </mxGeometry>
        </mxCell>
        <mxCell id="-a_JBFkdTe1gn5dEIn_v-42" value="lebelle : string" style="text;align=left;verticalAlign=top;spacingLeft=4;spacingRight=4;overflow=hidden;rotatable=0;points=[[0,0.5],[1,0.5]];portConstraint=eastwest;fontSize=15;" vertex="1" parent="-a_JBFkdTe1gn5dEIn_v-41">
          <mxGeometry y="26" width="140" height="26" as="geometry" />
        </mxCell>
        <mxCell id="-a_JBFkdTe1gn5dEIn_v-43" value="type : string" style="text;align=left;verticalAlign=top;spacingLeft=4;spacingRight=4;overflow=hidden;rotatable=0;points=[[0,0.5],[1,0.5]];portConstraint=eastwest;rounded=0;shadow=0;html=0;fontSize=15;" vertex="1" parent="-a_JBFkdTe1gn5dEIn_v-41">
          <mxGeometry y="52" width="140" height="26" as="geometry" />
        </mxCell>
        <mxCell id="-a_JBFkdTe1gn5dEIn_v-44" value="" style="line;html=1;strokeWidth=1;align=left;verticalAlign=middle;spacingTop=-1;spacingLeft=3;spacingRight=3;rotatable=0;labelPosition=right;points=[];portConstraint=eastwest;" vertex="1" parent="-a_JBFkdTe1gn5dEIn_v-41">
          <mxGeometry y="78" width="140" height="8" as="geometry" />
        </mxCell>
        <mxCell id="-a_JBFkdTe1gn5dEIn_v-45" value="&lt;font style=&quot;font-size: 18px;&quot;&gt;Reunion&lt;/font&gt;" style="swimlane;fontStyle=1;align=center;verticalAlign=top;childLayout=stackLayout;horizontal=1;startSize=26;horizontalStack=0;resizeParent=1;resizeParentMax=0;resizeLast=0;collapsible=1;marginBottom=0;whiteSpace=wrap;html=1;" vertex="1" parent="WIyWlLk6GJQsqaUBKTNV-1">
          <mxGeometry x="805" y="876" width="168" height="190" as="geometry" />
        </mxCell>
        <mxCell id="-a_JBFkdTe1gn5dEIn_v-46" value="&lt;font style=&quot;font-size: 15px;&quot;&gt;reference : string&lt;/font&gt;" style="text;strokeColor=none;fillColor=none;align=left;verticalAlign=top;spacingLeft=4;spacingRight=4;overflow=hidden;rotatable=0;points=[[0,0.5],[1,0.5]];portConstraint=eastwest;whiteSpace=wrap;html=1;" vertex="1" parent="-a_JBFkdTe1gn5dEIn_v-45">
          <mxGeometry y="26" width="168" height="26" as="geometry" />
        </mxCell>
        <mxCell id="-a_JBFkdTe1gn5dEIn_v-47" value="&lt;font style=&quot;font-size: 15px;&quot;&gt;objet : string&lt;/font&gt;" style="text;strokeColor=none;fillColor=none;align=left;verticalAlign=top;spacingLeft=4;spacingRight=4;overflow=hidden;rotatable=0;points=[[0,0.5],[1,0.5]];portConstraint=eastwest;whiteSpace=wrap;html=1;" vertex="1" parent="-a_JBFkdTe1gn5dEIn_v-45">
          <mxGeometry y="52" width="168" height="26" as="geometry" />
        </mxCell>
        <mxCell id="-a_JBFkdTe1gn5dEIn_v-48" value="&lt;font style=&quot;font-size: 15px;&quot;&gt;points_ordre_jour : string&lt;/font&gt;" style="text;strokeColor=none;fillColor=none;align=left;verticalAlign=top;spacingLeft=4;spacingRight=4;overflow=hidden;rotatable=0;points=[[0,0.5],[1,0.5]];portConstraint=eastwest;whiteSpace=wrap;html=1;" vertex="1" parent="-a_JBFkdTe1gn5dEIn_v-45">
          <mxGeometry y="78" width="168" height="26" as="geometry" />
        </mxCell>
        <mxCell id="-a_JBFkdTe1gn5dEIn_v-49" value="&lt;font style=&quot;font-size: 15px;&quot;&gt;compte_rendu : file&lt;/font&gt;" style="text;strokeColor=none;fillColor=none;align=left;verticalAlign=top;spacingLeft=4;spacingRight=4;overflow=hidden;rotatable=0;points=[[0,0.5],[1,0.5]];portConstraint=eastwest;whiteSpace=wrap;html=1;" vertex="1" parent="-a_JBFkdTe1gn5dEIn_v-45">
          <mxGeometry y="104" width="168" height="26" as="geometry" />
        </mxCell>
        <mxCell id="-a_JBFkdTe1gn5dEIn_v-50" value="&lt;font style=&quot;font-size: 15px;&quot;&gt;date_debut : date&lt;/font&gt;" style="text;strokeColor=none;fillColor=none;align=left;verticalAlign=top;spacingLeft=4;spacingRight=4;overflow=hidden;rotatable=0;points=[[0,0.5],[1,0.5]];portConstraint=eastwest;whiteSpace=wrap;html=1;" vertex="1" parent="-a_JBFkdTe1gn5dEIn_v-45">
          <mxGeometry y="130" width="168" height="26" as="geometry" />
        </mxCell>
        <mxCell id="-a_JBFkdTe1gn5dEIn_v-51" value="&lt;font style=&quot;font-size: 15px;&quot;&gt;date_fin : date&lt;/font&gt;" style="text;strokeColor=none;fillColor=none;align=left;verticalAlign=top;spacingLeft=4;spacingRight=4;overflow=hidden;rotatable=0;points=[[0,0.5],[1,0.5]];portConstraint=eastwest;whiteSpace=wrap;html=1;" vertex="1" parent="-a_JBFkdTe1gn5dEIn_v-45">
          <mxGeometry y="156" width="168" height="26" as="geometry" />
        </mxCell>
        <mxCell id="-a_JBFkdTe1gn5dEIn_v-52" value="" style="line;strokeWidth=1;fillColor=none;align=left;verticalAlign=middle;spacingTop=-1;spacingLeft=3;spacingRight=3;rotatable=0;labelPosition=right;points=[];portConstraint=eastwest;strokeColor=inherit;" vertex="1" parent="-a_JBFkdTe1gn5dEIn_v-45">
          <mxGeometry y="182" width="168" height="8" as="geometry" />
        </mxCell>
        <mxCell id="-a_JBFkdTe1gn5dEIn_v-53" value="&lt;font style=&quot;font-size: 18px;&quot;&gt;TypeInstruction&lt;/font&gt;" style="swimlane;fontStyle=1;align=center;verticalAlign=top;childLayout=stackLayout;horizontal=1;startSize=26;horizontalStack=0;resizeParent=1;resizeParentMax=0;resizeLast=0;collapsible=1;marginBottom=0;whiteSpace=wrap;html=1;" vertex="1" parent="WIyWlLk6GJQsqaUBKTNV-1">
          <mxGeometry x="940" y="1172" width="174" height="58" as="geometry" />
        </mxCell>
        <mxCell id="-a_JBFkdTe1gn5dEIn_v-54" value="&lt;font style=&quot;font-size: 15px;&quot;&gt;libelle : string&lt;/font&gt;" style="text;strokeColor=none;fillColor=none;align=left;verticalAlign=top;spacingLeft=4;spacingRight=4;overflow=hidden;rotatable=0;points=[[0,0.5],[1,0.5]];portConstraint=eastwest;whiteSpace=wrap;html=1;" vertex="1" parent="-a_JBFkdTe1gn5dEIn_v-53">
          <mxGeometry y="26" width="174" height="24" as="geometry" />
        </mxCell>
        <mxCell id="-a_JBFkdTe1gn5dEIn_v-55" value="" style="line;strokeWidth=1;fillColor=none;align=left;verticalAlign=middle;spacingTop=-1;spacingLeft=3;spacingRight=3;rotatable=0;labelPosition=right;points=[];portConstraint=eastwest;strokeColor=inherit;" vertex="1" parent="-a_JBFkdTe1gn5dEIn_v-53">
          <mxGeometry y="50" width="174" height="8" as="geometry" />
        </mxCell>
        <mxCell id="-a_JBFkdTe1gn5dEIn_v-56" value="&lt;font style=&quot;font-size: 18px;&quot;&gt;StatutInstruction&lt;/font&gt;" style="swimlane;fontStyle=1;align=center;verticalAlign=top;childLayout=stackLayout;horizontal=1;startSize=26;horizontalStack=0;resizeParent=1;resizeParentMax=0;resizeLast=0;collapsible=1;marginBottom=0;whiteSpace=wrap;html=1;" vertex="1" parent="WIyWlLk6GJQsqaUBKTNV-1">
          <mxGeometry x="1957" y="895" width="160" height="58" as="geometry" />
        </mxCell>
        <mxCell id="-a_JBFkdTe1gn5dEIn_v-57" value="&lt;font style=&quot;font-size: 15px;&quot;&gt;libelle : string&lt;/font&gt;" style="text;strokeColor=none;fillColor=none;align=left;verticalAlign=top;spacingLeft=4;spacingRight=4;overflow=hidden;rotatable=0;points=[[0,0.5],[1,0.5]];portConstraint=eastwest;whiteSpace=wrap;html=1;" vertex="1" parent="-a_JBFkdTe1gn5dEIn_v-56">
          <mxGeometry y="26" width="160" height="24" as="geometry" />
        </mxCell>
        <mxCell id="-a_JBFkdTe1gn5dEIn_v-58" value="" style="line;strokeWidth=1;fillColor=none;align=left;verticalAlign=middle;spacingTop=-1;spacingLeft=3;spacingRight=3;rotatable=0;labelPosition=right;points=[];portConstraint=eastwest;strokeColor=inherit;" vertex="1" parent="-a_JBFkdTe1gn5dEIn_v-56">
          <mxGeometry y="50" width="160" height="8" as="geometry" />
        </mxCell>
        <mxCell id="-a_JBFkdTe1gn5dEIn_v-59" value="Notification" style="swimlane;fontStyle=1;align=center;verticalAlign=top;childLayout=stackLayout;horizontal=1;startSize=26;horizontalStack=0;resizeParent=1;resizeParentMax=0;resizeLast=0;collapsible=1;marginBottom=0;whiteSpace=wrap;html=1;" vertex="1" parent="WIyWlLk6GJQsqaUBKTNV-1">
          <mxGeometry x="970" y="661" width="160" height="138" as="geometry" />
        </mxCell>
        <mxCell id="-a_JBFkdTe1gn5dEIn_v-60" value="&lt;font style=&quot;font-size: 15px;&quot;&gt;type : string&lt;/font&gt;" style="text;strokeColor=none;fillColor=none;align=left;verticalAlign=top;spacingLeft=4;spacingRight=4;overflow=hidden;rotatable=0;points=[[0,0.5],[1,0.5]];portConstraint=eastwest;whiteSpace=wrap;html=1;" vertex="1" parent="-a_JBFkdTe1gn5dEIn_v-59">
          <mxGeometry y="26" width="160" height="26" as="geometry" />
        </mxCell>
        <mxCell id="-a_JBFkdTe1gn5dEIn_v-61" value="&lt;font style=&quot;font-size: 15px;&quot;&gt;date_creation : date&lt;/font&gt;" style="text;strokeColor=none;fillColor=none;align=left;verticalAlign=top;spacingLeft=4;spacingRight=4;overflow=hidden;rotatable=0;points=[[0,0.5],[1,0.5]];portConstraint=eastwest;whiteSpace=wrap;html=1;" vertex="1" parent="-a_JBFkdTe1gn5dEIn_v-59">
          <mxGeometry y="52" width="160" height="26" as="geometry" />
        </mxCell>
        <mxCell id="-a_JBFkdTe1gn5dEIn_v-62" value="&lt;font style=&quot;font-size: 15px;&quot;&gt;state : boolean&lt;/font&gt;" style="text;strokeColor=none;fillColor=none;align=left;verticalAlign=top;spacingLeft=4;spacingRight=4;overflow=hidden;rotatable=0;points=[[0,0.5],[1,0.5]];portConstraint=eastwest;whiteSpace=wrap;html=1;" vertex="1" parent="-a_JBFkdTe1gn5dEIn_v-59">
          <mxGeometry y="78" width="160" height="26" as="geometry" />
        </mxCell>
        <mxCell id="-a_JBFkdTe1gn5dEIn_v-63" value="&lt;font style=&quot;font-size: 15px;&quot;&gt;state : boolean&lt;/font&gt;" style="text;strokeColor=none;fillColor=none;align=left;verticalAlign=top;spacingLeft=4;spacingRight=4;overflow=hidden;rotatable=0;points=[[0,0.5],[1,0.5]];portConstraint=eastwest;whiteSpace=wrap;html=1;" vertex="1" parent="-a_JBFkdTe1gn5dEIn_v-59">
          <mxGeometry y="104" width="160" height="26" as="geometry" />
        </mxCell>
        <mxCell id="-a_JBFkdTe1gn5dEIn_v-64" value="" style="line;strokeWidth=1;fillColor=none;align=left;verticalAlign=middle;spacingTop=-1;spacingLeft=3;spacingRight=3;rotatable=0;labelPosition=right;points=[];portConstraint=eastwest;strokeColor=inherit;" vertex="1" parent="-a_JBFkdTe1gn5dEIn_v-59">
          <mxGeometry y="130" width="160" height="8" as="geometry" />
        </mxCell>
        <mxCell id="-a_JBFkdTe1gn5dEIn_v-65" value="Reformulation" style="swimlane;fontStyle=1;align=center;verticalAlign=top;childLayout=stackLayout;horizontal=1;startSize=26;horizontalStack=0;resizeParent=1;resizeParentMax=0;resizeLast=0;collapsible=1;marginBottom=0;whiteSpace=wrap;html=1;" vertex="1" parent="WIyWlLk6GJQsqaUBKTNV-1">
          <mxGeometry x="1181" y="729" width="200" height="112" as="geometry" />
        </mxCell>
        <mxCell id="-a_JBFkdTe1gn5dEIn_v-66" value="&lt;font style=&quot;font-size: 15px;&quot;&gt;date_reformulation : date&lt;/font&gt;" style="text;strokeColor=none;fillColor=none;align=left;verticalAlign=top;spacingLeft=4;spacingRight=4;overflow=hidden;rotatable=0;points=[[0,0.5],[1,0.5]];portConstraint=eastwest;whiteSpace=wrap;html=1;" vertex="1" parent="-a_JBFkdTe1gn5dEIn_v-65">
          <mxGeometry y="26" width="200" height="26" as="geometry" />
        </mxCell>
        <mxCell id="-a_JBFkdTe1gn5dEIn_v-67" value="&lt;font style=&quot;font-size: 15px;&quot;&gt;modifications : string&lt;/font&gt;" style="text;strokeColor=none;fillColor=none;align=left;verticalAlign=top;spacingLeft=4;spacingRight=4;overflow=hidden;rotatable=0;points=[[0,0.5],[1,0.5]];portConstraint=eastwest;whiteSpace=wrap;html=1;" vertex="1" parent="-a_JBFkdTe1gn5dEIn_v-65">
          <mxGeometry y="52" width="200" height="26" as="geometry" />
        </mxCell>
        <mxCell id="-a_JBFkdTe1gn5dEIn_v-68" value="&lt;font style=&quot;font-size: 15px;&quot;&gt;is_validated : boolean&lt;/font&gt;" style="text;strokeColor=none;fillColor=none;align=left;verticalAlign=top;spacingLeft=4;spacingRight=4;overflow=hidden;rotatable=0;points=[[0,0.5],[1,0.5]];portConstraint=eastwest;whiteSpace=wrap;html=1;" vertex="1" parent="-a_JBFkdTe1gn5dEIn_v-65">
          <mxGeometry y="78" width="200" height="26" as="geometry" />
        </mxCell>
        <mxCell id="-a_JBFkdTe1gn5dEIn_v-69" value="" style="line;strokeWidth=1;fillColor=none;align=left;verticalAlign=middle;spacingTop=-1;spacingLeft=3;spacingRight=3;rotatable=0;labelPosition=right;points=[];portConstraint=eastwest;strokeColor=inherit;" vertex="1" parent="-a_JBFkdTe1gn5dEIn_v-65">
          <mxGeometry y="104" width="200" height="8" as="geometry" />
        </mxCell>
        <mxCell id="-a_JBFkdTe1gn5dEIn_v-70" value="&lt;font style=&quot;font-size: 18px;&quot;&gt;Instruction&lt;/font&gt;" style="swimlane;fontStyle=1;align=center;verticalAlign=top;childLayout=stackLayout;horizontal=1;startSize=26;horizontalStack=0;resizeParent=1;resizeParentMax=0;resizeLast=0;collapsible=1;marginBottom=0;whiteSpace=wrap;html=1;" vertex="1" parent="WIyWlLk6GJQsqaUBKTNV-1">
          <mxGeometry x="1337" y="936" width="242" height="346" as="geometry" />
        </mxCell>
        <mxCell id="-a_JBFkdTe1gn5dEIn_v-71" value="&lt;font style=&quot;font-size: 15px;&quot;&gt;libelle_instruction : string&lt;/font&gt;" style="text;strokeColor=none;fillColor=none;align=left;verticalAlign=top;spacingLeft=4;spacingRight=4;overflow=hidden;rotatable=0;points=[[0,0.5],[1,0.5]];portConstraint=eastwest;whiteSpace=wrap;html=1;" vertex="1" parent="-a_JBFkdTe1gn5dEIn_v-70">
          <mxGeometry y="26" width="242" height="26" as="geometry" />
        </mxCell>
        <mxCell id="-a_JBFkdTe1gn5dEIn_v-72" value="&lt;font style=&quot;font-size: 15px;&quot;&gt;reference : string&lt;/font&gt;" style="text;strokeColor=none;fillColor=none;align=left;verticalAlign=top;spacingLeft=4;spacingRight=4;overflow=hidden;rotatable=0;points=[[0,0.5],[1,0.5]];portConstraint=eastwest;whiteSpace=wrap;html=1;" vertex="1" parent="-a_JBFkdTe1gn5dEIn_v-70">
          <mxGeometry y="52" width="242" height="26" as="geometry" />
        </mxCell>
        <mxCell id="-a_JBFkdTe1gn5dEIn_v-73" value="&lt;font style=&quot;font-size: 15px;&quot;&gt;date_decision : date&lt;/font&gt;" style="text;strokeColor=none;fillColor=none;align=left;verticalAlign=top;spacingLeft=4;spacingRight=4;overflow=hidden;rotatable=0;points=[[0,0.5],[1,0.5]];portConstraint=eastwest;whiteSpace=wrap;html=1;" vertex="1" parent="-a_JBFkdTe1gn5dEIn_v-70">
          <mxGeometry y="78" width="242" height="26" as="geometry" />
        </mxCell>
        <mxCell id="-a_JBFkdTe1gn5dEIn_v-74" value="&lt;font style=&quot;font-size: 15px;&quot;&gt;echeance : date&lt;/font&gt;" style="text;strokeColor=none;fillColor=none;align=left;verticalAlign=top;spacingLeft=4;spacingRight=4;overflow=hidden;rotatable=0;points=[[0,0.5],[1,0.5]];portConstraint=eastwest;whiteSpace=wrap;html=1;" vertex="1" parent="-a_JBFkdTe1gn5dEIn_v-70">
          <mxGeometry y="104" width="242" height="26" as="geometry" />
        </mxCell>
        <mxCell id="-a_JBFkdTe1gn5dEIn_v-75" value="&lt;font style=&quot;font-size: 15px;&quot;&gt;probleme_identifie : string&lt;/font&gt;" style="text;strokeColor=none;fillColor=none;align=left;verticalAlign=top;spacingLeft=4;spacingRight=4;overflow=hidden;rotatable=0;points=[[0,0.5],[1,0.5]];portConstraint=eastwest;whiteSpace=wrap;html=1;" vertex="1" parent="-a_JBFkdTe1gn5dEIn_v-70">
          <mxGeometry y="130" width="242" height="26" as="geometry" />
        </mxCell>
        <mxCell id="-a_JBFkdTe1gn5dEIn_v-76" value="&lt;font style=&quot;font-size: 15px;&quot;&gt;impact : string&lt;/font&gt;" style="text;strokeColor=none;fillColor=none;align=left;verticalAlign=top;spacingLeft=4;spacingRight=4;overflow=hidden;rotatable=0;points=[[0,0.5],[1,0.5]];portConstraint=eastwest;whiteSpace=wrap;html=1;" vertex="1" parent="-a_JBFkdTe1gn5dEIn_v-70">
          <mxGeometry y="156" width="242" height="26" as="geometry" />
        </mxCell>
        <mxCell id="-a_JBFkdTe1gn5dEIn_v-77" value="&lt;font style=&quot;font-size: 15px;&quot;&gt;taux_realization : reel&lt;/font&gt;" style="text;strokeColor=none;fillColor=none;align=left;verticalAlign=top;spacingLeft=4;spacingRight=4;overflow=hidden;rotatable=0;points=[[0,0.5],[1,0.5]];portConstraint=eastwest;whiteSpace=wrap;html=1;" vertex="1" parent="-a_JBFkdTe1gn5dEIn_v-70">
          <mxGeometry y="182" width="242" height="26" as="geometry" />
        </mxCell>
        <mxCell id="-a_JBFkdTe1gn5dEIn_v-78" value="&lt;font style=&quot;font-size: 15px;&quot;&gt;taux_consommation_delais : reel&lt;/font&gt;" style="text;strokeColor=none;fillColor=none;align=left;verticalAlign=top;spacingLeft=4;spacingRight=4;overflow=hidden;rotatable=0;points=[[0,0.5],[1,0.5]];portConstraint=eastwest;whiteSpace=wrap;html=1;" vertex="1" parent="-a_JBFkdTe1gn5dEIn_v-70">
          <mxGeometry y="208" width="242" height="26" as="geometry" />
        </mxCell>
        <mxCell id="-a_JBFkdTe1gn5dEIn_v-79" value="&lt;font style=&quot;font-size: 16px;&quot;&gt;taux_realization : reel&lt;/font&gt;" style="text;strokeColor=none;fillColor=none;align=left;verticalAlign=top;spacingLeft=4;spacingRight=4;overflow=hidden;rotatable=0;points=[[0,0.5],[1,0.5]];portConstraint=eastwest;whiteSpace=wrap;html=1;" vertex="1" parent="-a_JBFkdTe1gn5dEIn_v-70">
          <mxGeometry y="234" width="242" height="26" as="geometry" />
        </mxCell>
        <mxCell id="-a_JBFkdTe1gn5dEIn_v-80" value="&lt;font style=&quot;font-size: 15px;&quot;&gt;liste_livrables : string&lt;/font&gt;" style="text;strokeColor=none;fillColor=none;align=left;verticalAlign=top;spacingLeft=4;spacingRight=4;overflow=hidden;rotatable=0;points=[[0,0.5],[1,0.5]];portConstraint=eastwest;whiteSpace=wrap;html=1;" vertex="1" parent="-a_JBFkdTe1gn5dEIn_v-70">
          <mxGeometry y="260" width="242" height="26" as="geometry" />
        </mxCell>
        <mxCell id="-a_JBFkdTe1gn5dEIn_v-81" value="&lt;font style=&quot;font-size: 15px;&quot;&gt;dans_matrice_temporaire : boolean&lt;/font&gt;" style="text;strokeColor=none;fillColor=none;align=left;verticalAlign=top;spacingLeft=4;spacingRight=4;overflow=hidden;rotatable=0;points=[[0,0.5],[1,0.5]];portConstraint=eastwest;whiteSpace=wrap;html=1;" vertex="1" parent="-a_JBFkdTe1gn5dEIn_v-70">
          <mxGeometry y="286" width="242" height="26" as="geometry" />
        </mxCell>
        <mxCell id="-a_JBFkdTe1gn5dEIn_v-82" value="&lt;font style=&quot;font-size: 15px;&quot;&gt;RefStructures : string&lt;/font&gt;" style="text;strokeColor=none;fillColor=none;align=left;verticalAlign=top;spacingLeft=4;spacingRight=4;overflow=hidden;rotatable=0;points=[[0,0.5],[1,0.5]];portConstraint=eastwest;whiteSpace=wrap;html=1;" vertex="1" parent="-a_JBFkdTe1gn5dEIn_v-70">
          <mxGeometry y="312" width="242" height="26" as="geometry" />
        </mxCell>
        <mxCell id="-a_JBFkdTe1gn5dEIn_v-83" value="" style="line;strokeWidth=1;fillColor=none;align=left;verticalAlign=middle;spacingTop=-1;spacingLeft=3;spacingRight=3;rotatable=0;labelPosition=right;points=[];portConstraint=eastwest;strokeColor=inherit;" vertex="1" parent="-a_JBFkdTe1gn5dEIn_v-70">
          <mxGeometry y="338" width="242" height="8" as="geometry" />
        </mxCell>
        <mxCell id="-a_JBFkdTe1gn5dEIn_v-84" value="&lt;font style=&quot;font-size: 18px;&quot;&gt;MiseEnOeuvre&lt;/font&gt;" style="swimlane;fontStyle=1;align=center;verticalAlign=top;childLayout=stackLayout;horizontal=1;startSize=26;horizontalStack=0;resizeParent=1;resizeParentMax=0;resizeLast=0;collapsible=1;marginBottom=0;whiteSpace=wrap;html=1;" vertex="1" parent="WIyWlLk6GJQsqaUBKTNV-1">
          <mxGeometry x="1917" y="558" width="244" height="112" as="geometry" />
        </mxCell>
        <mxCell id="-a_JBFkdTe1gn5dEIn_v-85" value="&lt;font style=&quot;font-size: 15px;&quot;&gt;niveau_execution : string&lt;/font&gt;" style="text;strokeColor=none;fillColor=none;align=left;verticalAlign=top;spacingLeft=4;spacingRight=4;overflow=hidden;rotatable=0;points=[[0,0.5],[1,0.5]];portConstraint=eastwest;whiteSpace=wrap;html=1;" vertex="1" parent="-a_JBFkdTe1gn5dEIn_v-84">
          <mxGeometry y="26" width="244" height="26" as="geometry" />
        </mxCell>
        <mxCell id="-a_JBFkdTe1gn5dEIn_v-86" value="&lt;font style=&quot;font-size: 15px;&quot;&gt;taux_realization : reel&lt;/font&gt;" style="text;strokeColor=none;fillColor=none;align=left;verticalAlign=top;spacingLeft=4;spacingRight=4;overflow=hidden;rotatable=0;points=[[0,0.5],[1,0.5]];portConstraint=eastwest;whiteSpace=wrap;html=1;" vertex="1" parent="-a_JBFkdTe1gn5dEIn_v-84">
          <mxGeometry y="52" width="244" height="26" as="geometry" />
        </mxCell>
        <mxCell id="-a_JBFkdTe1gn5dEIn_v-87" value="&lt;font style=&quot;font-size: 15px;&quot;&gt;date_histo : date&lt;/font&gt;" style="text;strokeColor=none;fillColor=none;align=left;verticalAlign=top;spacingLeft=4;spacingRight=4;overflow=hidden;rotatable=0;points=[[0,0.5],[1,0.5]];portConstraint=eastwest;whiteSpace=wrap;html=1;" vertex="1" parent="-a_JBFkdTe1gn5dEIn_v-84">
          <mxGeometry y="78" width="244" height="26" as="geometry" />
        </mxCell>
        <mxCell id="-a_JBFkdTe1gn5dEIn_v-88" value="" style="line;strokeWidth=1;fillColor=none;align=left;verticalAlign=middle;spacingTop=-1;spacingLeft=3;spacingRight=3;rotatable=0;labelPosition=right;points=[];portConstraint=eastwest;strokeColor=inherit;" vertex="1" parent="-a_JBFkdTe1gn5dEIn_v-84">
          <mxGeometry y="104" width="244" height="8" as="geometry" />
        </mxCell>
        <mxCell id="-a_JBFkdTe1gn5dEIn_v-89" value="&lt;font style=&quot;font-size: 18px;&quot;&gt;InstructionValidee&lt;/font&gt;" style="swimlane;fontStyle=1;align=center;verticalAlign=top;childLayout=stackLayout;horizontal=1;startSize=26;horizontalStack=0;resizeParent=1;resizeParentMax=0;resizeLast=0;collapsible=1;marginBottom=0;whiteSpace=wrap;html=1;" vertex="1" parent="WIyWlLk6GJQsqaUBKTNV-1">
          <mxGeometry x="1750" y="1041" width="195" height="112" as="geometry" />
        </mxCell>
        <mxCell id="-a_JBFkdTe1gn5dEIn_v-90" value="&lt;font style=&quot;font-size: 15px;&quot;&gt;niveau_execution : string&lt;/font&gt;" style="text;strokeColor=none;fillColor=none;align=left;verticalAlign=top;spacingLeft=4;spacingRight=4;overflow=hidden;rotatable=0;points=[[0,0.5],[1,0.5]];portConstraint=eastwest;whiteSpace=wrap;html=1;" vertex="1" parent="-a_JBFkdTe1gn5dEIn_v-89">
          <mxGeometry y="26" width="195" height="26" as="geometry" />
        </mxCell>
        <mxCell id="-a_JBFkdTe1gn5dEIn_v-91" value="&lt;font style=&quot;font-size: 15px;&quot;&gt;taux_realization : reel&lt;/font&gt;" style="text;strokeColor=none;fillColor=none;align=left;verticalAlign=top;spacingLeft=4;spacingRight=4;overflow=hidden;rotatable=0;points=[[0,0.5],[1,0.5]];portConstraint=eastwest;whiteSpace=wrap;html=1;" vertex="1" parent="-a_JBFkdTe1gn5dEIn_v-89">
          <mxGeometry y="52" width="195" height="26" as="geometry" />
        </mxCell>
        <mxCell id="-a_JBFkdTe1gn5dEIn_v-92" value="&lt;font style=&quot;font-size: 15px;&quot;&gt;quota : reel&lt;/font&gt;" style="text;strokeColor=none;fillColor=none;align=left;verticalAlign=top;spacingLeft=4;spacingRight=4;overflow=hidden;rotatable=0;points=[[0,0.5],[1,0.5]];portConstraint=eastwest;whiteSpace=wrap;html=1;" vertex="1" parent="-a_JBFkdTe1gn5dEIn_v-89">
          <mxGeometry y="78" width="195" height="26" as="geometry" />
        </mxCell>
        <mxCell id="-a_JBFkdTe1gn5dEIn_v-93" value="" style="line;strokeWidth=1;fillColor=none;align=left;verticalAlign=middle;spacingTop=-1;spacingLeft=3;spacingRight=3;rotatable=0;labelPosition=right;points=[];portConstraint=eastwest;strokeColor=inherit;" vertex="1" parent="-a_JBFkdTe1gn5dEIn_v-89">
          <mxGeometry y="104" width="195" height="8" as="geometry" />
        </mxCell>
        <mxCell id="-a_JBFkdTe1gn5dEIn_v-94" value="&lt;font style=&quot;font-size: 18px;&quot;&gt;Participant&lt;/font&gt;" style="swimlane;fontStyle=1;align=center;verticalAlign=top;childLayout=stackLayout;horizontal=1;startSize=26;horizontalStack=0;resizeParent=1;resizeParentMax=0;resizeLast=0;collapsible=1;marginBottom=0;whiteSpace=wrap;html=1;" vertex="1" parent="WIyWlLk6GJQsqaUBKTNV-1">
          <mxGeometry x="1194" y="409" width="160" height="34" as="geometry" />
        </mxCell>
        <mxCell id="-a_JBFkdTe1gn5dEIn_v-95" value="" style="line;strokeWidth=1;fillColor=none;align=left;verticalAlign=middle;spacingTop=-1;spacingLeft=3;spacingRight=3;rotatable=0;labelPosition=right;points=[];portConstraint=eastwest;strokeColor=inherit;" vertex="1" parent="-a_JBFkdTe1gn5dEIn_v-94">
          <mxGeometry y="26" width="160" height="8" as="geometry" />
        </mxCell>
        <mxCell id="-a_JBFkdTe1gn5dEIn_v-96" value="&lt;font style=&quot;font-size: 18px;&quot;&gt;Role&lt;/font&gt;" style="swimlane;fontStyle=1;align=center;verticalAlign=top;childLayout=stackLayout;horizontal=1;startSize=26;horizontalStack=0;resizeParent=1;resizeParentMax=0;resizeLast=0;collapsible=1;marginBottom=0;whiteSpace=wrap;html=1;" vertex="1" parent="WIyWlLk6GJQsqaUBKTNV-1">
          <mxGeometry x="1194" y="259" width="160" height="60" as="geometry" />
        </mxCell>
        <mxCell id="-a_JBFkdTe1gn5dEIn_v-97" value="&lt;font style=&quot;font-size: 15px;&quot;&gt;libelle : string&lt;/font&gt;" style="text;strokeColor=none;fillColor=none;align=left;verticalAlign=top;spacingLeft=4;spacingRight=4;overflow=hidden;rotatable=0;points=[[0,0.5],[1,0.5]];portConstraint=eastwest;whiteSpace=wrap;html=1;" vertex="1" parent="-a_JBFkdTe1gn5dEIn_v-96">
          <mxGeometry y="26" width="160" height="26" as="geometry" />
        </mxCell>
        <mxCell id="-a_JBFkdTe1gn5dEIn_v-98" value="" style="line;strokeWidth=1;fillColor=none;align=left;verticalAlign=middle;spacingTop=-1;spacingLeft=3;spacingRight=3;rotatable=0;labelPosition=right;points=[];portConstraint=eastwest;strokeColor=inherit;" vertex="1" parent="-a_JBFkdTe1gn5dEIn_v-96">
          <mxGeometry y="52" width="160" height="8" as="geometry" />
        </mxCell>
        <mxCell id="-a_JBFkdTe1gn5dEIn_v-99" value="&lt;font style=&quot;font-size: 18px;&quot;&gt;Livrable&lt;/font&gt;" style="swimlane;fontStyle=1;align=center;verticalAlign=top;childLayout=stackLayout;horizontal=1;startSize=26;horizontalStack=0;resizeParent=1;resizeParentMax=0;resizeLast=0;collapsible=1;marginBottom=0;whiteSpace=wrap;html=1;" vertex="1" parent="WIyWlLk6GJQsqaUBKTNV-1">
          <mxGeometry x="2148" y="896" width="160" height="60" as="geometry" />
        </mxCell>
        <mxCell id="-a_JBFkdTe1gn5dEIn_v-100" value="&lt;font style=&quot;font-size: 15px;&quot;&gt;commentaire : string&lt;/font&gt;" style="text;strokeColor=none;fillColor=none;align=left;verticalAlign=top;spacingLeft=4;spacingRight=4;overflow=hidden;rotatable=0;points=[[0,0.5],[1,0.5]];portConstraint=eastwest;whiteSpace=wrap;html=1;" vertex="1" parent="-a_JBFkdTe1gn5dEIn_v-99">
          <mxGeometry y="26" width="160" height="26" as="geometry" />
        </mxCell>
        <mxCell id="-a_JBFkdTe1gn5dEIn_v-101" value="" style="line;strokeWidth=1;fillColor=none;align=left;verticalAlign=middle;spacingTop=-1;spacingLeft=3;spacingRight=3;rotatable=0;labelPosition=right;points=[];portConstraint=eastwest;strokeColor=inherit;" vertex="1" parent="-a_JBFkdTe1gn5dEIn_v-99">
          <mxGeometry y="52" width="160" height="8" as="geometry" />
        </mxCell>
        <mxCell id="-a_JBFkdTe1gn5dEIn_v-102" value="&lt;font style=&quot;font-size: 18px;&quot;&gt;Fichier&lt;/font&gt;" style="swimlane;fontStyle=1;align=center;verticalAlign=top;childLayout=stackLayout;horizontal=1;startSize=26;horizontalStack=0;resizeParent=1;resizeParentMax=0;resizeLast=0;collapsible=1;marginBottom=0;whiteSpace=wrap;html=1;" vertex="1" parent="WIyWlLk6GJQsqaUBKTNV-1">
          <mxGeometry x="2147" y="1195" width="160" height="60" as="geometry" />
        </mxCell>
        <mxCell id="-a_JBFkdTe1gn5dEIn_v-103" value="&lt;font style=&quot;font-size: 15px;&quot;&gt;fichier : file&lt;/font&gt;" style="text;strokeColor=none;fillColor=none;align=left;verticalAlign=top;spacingLeft=4;spacingRight=4;overflow=hidden;rotatable=0;points=[[0,0.5],[1,0.5]];portConstraint=eastwest;whiteSpace=wrap;html=1;" vertex="1" parent="-a_JBFkdTe1gn5dEIn_v-102">
          <mxGeometry y="26" width="160" height="26" as="geometry" />
        </mxCell>
        <mxCell id="-a_JBFkdTe1gn5dEIn_v-104" value="" style="line;strokeWidth=1;fillColor=none;align=left;verticalAlign=middle;spacingTop=-1;spacingLeft=3;spacingRight=3;rotatable=0;labelPosition=right;points=[];portConstraint=eastwest;strokeColor=inherit;" vertex="1" parent="-a_JBFkdTe1gn5dEIn_v-102">
          <mxGeometry y="52" width="160" height="8" as="geometry" />
        </mxCell>
        <mxCell id="-a_JBFkdTe1gn5dEIn_v-105" value="&lt;font style=&quot;font-size: 18px;&quot;&gt;Structure&lt;/font&gt;" style="swimlane;fontStyle=1;align=center;verticalAlign=top;childLayout=stackLayout;horizontal=1;startSize=26;horizontalStack=0;resizeParent=1;resizeParentMax=0;resizeLast=0;collapsible=1;marginBottom=0;whiteSpace=wrap;html=1;" vertex="1" parent="WIyWlLk6GJQsqaUBKTNV-1">
          <mxGeometry x="1747" y="733" width="200" height="86" as="geometry" />
        </mxCell>
        <mxCell id="-a_JBFkdTe1gn5dEIn_v-106" value="&lt;font style=&quot;font-size: 15px;&quot;&gt;libelle_court : string&lt;/font&gt;" style="text;strokeColor=none;fillColor=none;align=left;verticalAlign=top;spacingLeft=4;spacingRight=4;overflow=hidden;rotatable=0;points=[[0,0.5],[1,0.5]];portConstraint=eastwest;whiteSpace=wrap;html=1;" vertex="1" parent="-a_JBFkdTe1gn5dEIn_v-105">
          <mxGeometry y="26" width="200" height="26" as="geometry" />
        </mxCell>
        <mxCell id="-a_JBFkdTe1gn5dEIn_v-107" value="&lt;font style=&quot;font-size: 15px;&quot;&gt;libelle_long : string&lt;/font&gt;" style="text;strokeColor=none;fillColor=none;align=left;verticalAlign=top;spacingLeft=4;spacingRight=4;overflow=hidden;rotatable=0;points=[[0,0.5],[1,0.5]];portConstraint=eastwest;whiteSpace=wrap;html=1;" vertex="1" parent="-a_JBFkdTe1gn5dEIn_v-105">
          <mxGeometry y="52" width="200" height="26" as="geometry" />
        </mxCell>
        <mxCell id="-a_JBFkdTe1gn5dEIn_v-108" value="" style="line;strokeWidth=1;fillColor=none;align=left;verticalAlign=middle;spacingTop=-1;spacingLeft=3;spacingRight=3;rotatable=0;labelPosition=right;points=[];portConstraint=eastwest;strokeColor=inherit;" vertex="1" parent="-a_JBFkdTe1gn5dEIn_v-105">
          <mxGeometry y="78" width="200" height="8" as="geometry" />
        </mxCell>
        <mxCell id="-a_JBFkdTe1gn5dEIn_v-109" value="&lt;font style=&quot;font-size: 18px;&quot;&gt;Poste&lt;/font&gt;" style="swimlane;fontStyle=1;align=center;verticalAlign=top;childLayout=stackLayout;horizontal=1;startSize=26;horizontalStack=0;resizeParent=1;resizeParentMax=0;resizeLast=0;collapsible=1;marginBottom=0;whiteSpace=wrap;html=1;" vertex="1" parent="WIyWlLk6GJQsqaUBKTNV-1">
          <mxGeometry x="1751" y="258" width="220" height="86" as="geometry" />
        </mxCell>
        <mxCell id="-a_JBFkdTe1gn5dEIn_v-110" value="&lt;font style=&quot;font-size: 15px;&quot;&gt;libelle_court : string&lt;/font&gt;" style="text;strokeColor=none;fillColor=none;align=left;verticalAlign=top;spacingLeft=4;spacingRight=4;overflow=hidden;rotatable=0;points=[[0,0.5],[1,0.5]];portConstraint=eastwest;whiteSpace=wrap;html=1;" vertex="1" parent="-a_JBFkdTe1gn5dEIn_v-109">
          <mxGeometry y="26" width="220" height="26" as="geometry" />
        </mxCell>
        <mxCell id="-a_JBFkdTe1gn5dEIn_v-111" value="&lt;font style=&quot;font-size: 15px;&quot;&gt;libelle_long : string&lt;/font&gt;" style="text;strokeColor=none;fillColor=none;align=left;verticalAlign=top;spacingLeft=4;spacingRight=4;overflow=hidden;rotatable=0;points=[[0,0.5],[1,0.5]];portConstraint=eastwest;whiteSpace=wrap;html=1;" vertex="1" parent="-a_JBFkdTe1gn5dEIn_v-109">
          <mxGeometry y="52" width="220" height="26" as="geometry" />
        </mxCell>
        <mxCell id="-a_JBFkdTe1gn5dEIn_v-112" value="" style="line;strokeWidth=1;fillColor=none;align=left;verticalAlign=middle;spacingTop=-1;spacingLeft=3;spacingRight=3;rotatable=0;labelPosition=right;points=[];portConstraint=eastwest;strokeColor=inherit;" vertex="1" parent="-a_JBFkdTe1gn5dEIn_v-109">
          <mxGeometry y="78" width="220" height="8" as="geometry" />
        </mxCell>
        <mxCell id="-a_JBFkdTe1gn5dEIn_v-113" value="&lt;font style=&quot;font-size: 18px;&quot;&gt;HistoriqueSuppression&lt;/font&gt;" style="swimlane;fontStyle=1;align=center;verticalAlign=top;childLayout=stackLayout;horizontal=1;startSize=26;horizontalStack=0;resizeParent=1;resizeParentMax=0;resizeLast=0;collapsible=1;marginBottom=0;whiteSpace=wrap;html=1;" vertex="1" parent="WIyWlLk6GJQsqaUBKTNV-1">
          <mxGeometry x="1750" y="394" width="220" height="86" as="geometry" />
        </mxCell>
        <mxCell id="-a_JBFkdTe1gn5dEIn_v-114" value="&lt;font style=&quot;font-size: 15px;&quot;&gt;date_suppression : date&lt;/font&gt;" style="text;strokeColor=none;fillColor=none;align=left;verticalAlign=top;spacingLeft=4;spacingRight=4;overflow=hidden;rotatable=0;points=[[0,0.5],[1,0.5]];portConstraint=eastwest;whiteSpace=wrap;html=1;" vertex="1" parent="-a_JBFkdTe1gn5dEIn_v-113">
          <mxGeometry y="26" width="220" height="26" as="geometry" />
        </mxCell>
        <mxCell id="-a_JBFkdTe1gn5dEIn_v-115" value="&lt;font style=&quot;font-size: 15px;&quot;&gt;description : string&lt;/font&gt;" style="text;strokeColor=none;fillColor=none;align=left;verticalAlign=top;spacingLeft=4;spacingRight=4;overflow=hidden;rotatable=0;points=[[0,0.5],[1,0.5]];portConstraint=eastwest;whiteSpace=wrap;html=1;" vertex="1" parent="-a_JBFkdTe1gn5dEIn_v-113">
          <mxGeometry y="52" width="220" height="26" as="geometry" />
        </mxCell>
        <mxCell id="-a_JBFkdTe1gn5dEIn_v-116" value="" style="line;strokeWidth=1;fillColor=none;align=left;verticalAlign=middle;spacingTop=-1;spacingLeft=3;spacingRight=3;rotatable=0;labelPosition=right;points=[];portConstraint=eastwest;strokeColor=inherit;" vertex="1" parent="-a_JBFkdTe1gn5dEIn_v-113">
          <mxGeometry y="78" width="220" height="8" as="geometry" />
        </mxCell>
        <mxCell id="-a_JBFkdTe1gn5dEIn_v-117" value="" style="endArrow=none;html=1;rounded=0;entryX=0.5;entryY=1;entryDx=0;entryDy=0;" edge="1" parent="WIyWlLk6GJQsqaUBKTNV-1" source="-a_JBFkdTe1gn5dEIn_v-45" target="-a_JBFkdTe1gn5dEIn_v-41">
          <mxGeometry width="50" height="50" relative="1" as="geometry">
            <mxPoint x="896" y="550" as="sourcePoint" />
            <mxPoint x="684" y="477" as="targetPoint" />
          </mxGeometry>
        </mxCell>
        <mxCell id="-a_JBFkdTe1gn5dEIn_v-118" value="" style="endArrow=none;html=1;rounded=0;entryX=0;entryY=0.5;entryDx=0;entryDy=0;exitX=0.75;exitY=0;exitDx=0;exitDy=0;" edge="1" parent="WIyWlLk6GJQsqaUBKTNV-1" source="-a_JBFkdTe1gn5dEIn_v-45" target="-a_JBFkdTe1gn5dEIn_v-61">
          <mxGeometry width="50" height="50" relative="1" as="geometry">
            <mxPoint x="634" y="767" as="sourcePoint" />
            <mxPoint x="684" y="717" as="targetPoint" />
            <Array as="points">
              <mxPoint x="930" y="726" />
            </Array>
          </mxGeometry>
        </mxCell>
        <mxCell id="-a_JBFkdTe1gn5dEIn_v-119" value="" style="endArrow=none;html=1;rounded=0;exitX=0.75;exitY=0;exitDx=0;exitDy=0;entryX=-0.005;entryY=0.13;entryDx=0;entryDy=0;entryPerimeter=0;" edge="1" parent="WIyWlLk6GJQsqaUBKTNV-1" source="-a_JBFkdTe1gn5dEIn_v-59" target="-a_JBFkdTe1gn5dEIn_v-36">
          <mxGeometry width="50" height="50" relative="1" as="geometry">
            <mxPoint x="1044" y="637" as="sourcePoint" />
            <mxPoint x="1094" y="587" as="targetPoint" />
            <Array as="points">
              <mxPoint x="1089" y="548" />
            </Array>
          </mxGeometry>
        </mxCell>
        <mxCell id="-a_JBFkdTe1gn5dEIn_v-120" value="" style="endArrow=none;html=1;rounded=0;entryX=0.5;entryY=1;entryDx=0;entryDy=0;exitX=0.75;exitY=0;exitDx=0;exitDy=0;" edge="1" parent="WIyWlLk6GJQsqaUBKTNV-1" source="-a_JBFkdTe1gn5dEIn_v-70" target="-a_JBFkdTe1gn5dEIn_v-36">
          <mxGeometry width="50" height="50" relative="1" as="geometry">
            <mxPoint x="1424" y="777" as="sourcePoint" />
            <mxPoint x="1474" y="727" as="targetPoint" />
          </mxGeometry>
        </mxCell>
        <mxCell id="-a_JBFkdTe1gn5dEIn_v-121" value="" style="endArrow=none;html=1;rounded=0;exitX=0.75;exitY=1;exitDx=0;exitDy=0;entryX=0;entryY=0.5;entryDx=0;entryDy=0;" edge="1" parent="WIyWlLk6GJQsqaUBKTNV-1" source="-a_JBFkdTe1gn5dEIn_v-36" target="-a_JBFkdTe1gn5dEIn_v-107">
          <mxGeometry width="50" height="50" relative="1" as="geometry">
            <mxPoint x="1724" y="597" as="sourcePoint" />
            <mxPoint x="1764" y="547" as="targetPoint" />
            <Array as="points">
              <mxPoint x="1577" y="798" />
            </Array>
          </mxGeometry>
        </mxCell>
        <mxCell id="-a_JBFkdTe1gn5dEIn_v-122" value="" style="endArrow=none;html=1;rounded=0;exitX=0.75;exitY=0;exitDx=0;exitDy=0;entryX=0;entryY=0.5;entryDx=0;entryDy=0;" edge="1" parent="WIyWlLk6GJQsqaUBKTNV-1" source="-a_JBFkdTe1gn5dEIn_v-36" target="-a_JBFkdTe1gn5dEIn_v-114">
          <mxGeometry width="50" height="50" relative="1" as="geometry">
            <mxPoint x="1574" y="387" as="sourcePoint" />
            <mxPoint x="1624" y="337" as="targetPoint" />
            <Array as="points">
              <mxPoint x="1577" y="433" />
            </Array>
          </mxGeometry>
        </mxCell>
        <mxCell id="-a_JBFkdTe1gn5dEIn_v-123" value="" style="endArrow=none;html=1;rounded=0;exitX=0.5;exitY=0;exitDx=0;exitDy=0;entryX=0;entryY=0.5;entryDx=0;entryDy=0;" edge="1" parent="WIyWlLk6GJQsqaUBKTNV-1" source="-a_JBFkdTe1gn5dEIn_v-36" target="-a_JBFkdTe1gn5dEIn_v-110">
          <mxGeometry width="50" height="50" relative="1" as="geometry">
            <mxPoint x="1574" y="417" as="sourcePoint" />
            <mxPoint x="1624" y="367" as="targetPoint" />
            <Array as="points">
              <mxPoint x="1520" y="297" />
            </Array>
          </mxGeometry>
        </mxCell>
        <mxCell id="-a_JBFkdTe1gn5dEIn_v-124" value="" style="endArrow=none;html=1;rounded=0;entryX=1;entryY=0.5;entryDx=0;entryDy=0;exitX=0.25;exitY=0;exitDx=0;exitDy=0;" edge="1" parent="WIyWlLk6GJQsqaUBKTNV-1" source="-a_JBFkdTe1gn5dEIn_v-36" target="-a_JBFkdTe1gn5dEIn_v-94">
          <mxGeometry width="50" height="50" relative="1" as="geometry">
            <mxPoint x="1454" y="537" as="sourcePoint" />
            <mxPoint x="1394" y="387" as="targetPoint" />
            <Array as="points">
              <mxPoint x="1462" y="426" />
            </Array>
          </mxGeometry>
        </mxCell>
        <mxCell id="-a_JBFkdTe1gn5dEIn_v-125" value="" style="endArrow=none;html=1;rounded=0;entryX=0.5;entryY=1;entryDx=0;entryDy=0;exitX=0.5;exitY=0;exitDx=0;exitDy=0;" edge="1" parent="WIyWlLk6GJQsqaUBKTNV-1" source="-a_JBFkdTe1gn5dEIn_v-94" target="-a_JBFkdTe1gn5dEIn_v-96">
          <mxGeometry width="50" height="50" relative="1" as="geometry">
            <mxPoint x="1384" y="327" as="sourcePoint" />
            <mxPoint x="1434" y="277" as="targetPoint" />
          </mxGeometry>
        </mxCell>
        <mxCell id="-a_JBFkdTe1gn5dEIn_v-126" value="" style="endArrow=none;html=1;rounded=0;exitX=1;exitY=0.5;exitDx=0;exitDy=0;entryX=0;entryY=0.5;entryDx=0;entryDy=0;" edge="1" parent="WIyWlLk6GJQsqaUBKTNV-1" source="-a_JBFkdTe1gn5dEIn_v-43" target="-a_JBFkdTe1gn5dEIn_v-94">
          <mxGeometry width="50" height="50" relative="1" as="geometry">
            <mxPoint x="894" y="317" as="sourcePoint" />
            <mxPoint x="944" y="267" as="targetPoint" />
          </mxGeometry>
        </mxCell>
        <mxCell id="-a_JBFkdTe1gn5dEIn_v-127" value="" style="endArrow=none;html=1;rounded=0;entryX=0.75;entryY=1;entryDx=0;entryDy=0;exitX=0.75;exitY=0;exitDx=0;exitDy=0;" edge="1" parent="WIyWlLk6GJQsqaUBKTNV-1" source="-a_JBFkdTe1gn5dEIn_v-89" target="-a_JBFkdTe1gn5dEIn_v-105">
          <mxGeometry width="50" height="50" relative="1" as="geometry">
            <mxPoint x="1864" y="987" as="sourcePoint" />
            <mxPoint x="1674" y="687" as="targetPoint" />
          </mxGeometry>
        </mxCell>
        <mxCell id="-a_JBFkdTe1gn5dEIn_v-128" value="" style="endArrow=none;html=1;rounded=0;exitX=1;exitY=0.5;exitDx=0;exitDy=0;entryX=0;entryY=0.5;entryDx=0;entryDy=0;" edge="1" parent="WIyWlLk6GJQsqaUBKTNV-1" source="-a_JBFkdTe1gn5dEIn_v-75" target="-a_JBFkdTe1gn5dEIn_v-90">
          <mxGeometry width="50" height="50" relative="1" as="geometry">
            <mxPoint x="1654" y="1187" as="sourcePoint" />
            <mxPoint x="1704" y="1137" as="targetPoint" />
          </mxGeometry>
        </mxCell>
        <mxCell id="-a_JBFkdTe1gn5dEIn_v-129" value="" style="endArrow=none;html=1;rounded=0;entryX=0.5;entryY=1;entryDx=0;entryDy=0;exitX=0;exitY=0.5;exitDx=0;exitDy=0;" edge="1" parent="WIyWlLk6GJQsqaUBKTNV-1" source="-a_JBFkdTe1gn5dEIn_v-76" target="-a_JBFkdTe1gn5dEIn_v-45">
          <mxGeometry width="50" height="50" relative="1" as="geometry">
            <mxPoint x="1144" y="1247" as="sourcePoint" />
            <mxPoint x="784" y="1047" as="targetPoint" />
            <Array as="points">
              <mxPoint x="889" y="1105" />
            </Array>
          </mxGeometry>
        </mxCell>
        <mxCell id="-a_JBFkdTe1gn5dEIn_v-130" value="" style="endArrow=none;html=1;rounded=0;entryX=0;entryY=0.5;entryDx=0;entryDy=0;exitX=1;exitY=0.5;exitDx=0;exitDy=0;" edge="1" parent="WIyWlLk6GJQsqaUBKTNV-1" source="-a_JBFkdTe1gn5dEIn_v-54" target="-a_JBFkdTe1gn5dEIn_v-80">
          <mxGeometry width="50" height="50" relative="1" as="geometry">
            <mxPoint x="1104" y="1227" as="sourcePoint" />
            <mxPoint x="1154" y="1177" as="targetPoint" />
          </mxGeometry>
        </mxCell>
        <mxCell id="-a_JBFkdTe1gn5dEIn_v-131" value="&lt;b&gt;1.1&lt;/b&gt;" style="text;html=1;align=center;verticalAlign=middle;whiteSpace=wrap;rounded=0;" vertex="1" parent="WIyWlLk6GJQsqaUBKTNV-1">
          <mxGeometry x="952" y="399" width="60" height="30" as="geometry" />
        </mxCell>
        <mxCell id="-a_JBFkdTe1gn5dEIn_v-132" value="&lt;b&gt;0.n&lt;/b&gt;" style="text;html=1;align=center;verticalAlign=middle;whiteSpace=wrap;rounded=0;" vertex="1" parent="WIyWlLk6GJQsqaUBKTNV-1">
          <mxGeometry x="848" y="847" width="60" height="30" as="geometry" />
        </mxCell>
        <mxCell id="-a_JBFkdTe1gn5dEIn_v-133" value="&lt;b&gt;1.1&lt;/b&gt;" style="text;html=1;align=center;verticalAlign=middle;whiteSpace=wrap;rounded=0;" vertex="1" parent="WIyWlLk6GJQsqaUBKTNV-1">
          <mxGeometry x="850" y="451" width="60" height="30" as="geometry" />
        </mxCell>
        <mxCell id="-a_JBFkdTe1gn5dEIn_v-134" value="&lt;b&gt;0.n&lt;/b&gt;" style="text;html=1;align=center;verticalAlign=middle;whiteSpace=wrap;rounded=0;" vertex="1" parent="WIyWlLk6GJQsqaUBKTNV-1">
          <mxGeometry x="920" y="699" width="60" height="30" as="geometry" />
        </mxCell>
        <mxCell id="-a_JBFkdTe1gn5dEIn_v-135" value="&lt;b&gt;1.1&lt;/b&gt;" style="text;html=1;align=center;verticalAlign=middle;whiteSpace=wrap;rounded=0;" vertex="1" parent="WIyWlLk6GJQsqaUBKTNV-1">
          <mxGeometry x="1226" y="319" width="60" height="30" as="geometry" />
        </mxCell>
        <mxCell id="-a_JBFkdTe1gn5dEIn_v-136" value="&lt;b&gt;1.n&lt;/b&gt;" style="text;html=1;align=center;verticalAlign=middle;whiteSpace=wrap;rounded=0;" vertex="1" parent="WIyWlLk6GJQsqaUBKTNV-1">
          <mxGeometry x="1150" y="398" width="60" height="30" as="geometry" />
        </mxCell>
        <mxCell id="-a_JBFkdTe1gn5dEIn_v-137" value="&lt;b&gt;0.n&lt;/b&gt;" style="text;html=1;align=center;verticalAlign=middle;whiteSpace=wrap;rounded=0;" vertex="1" parent="WIyWlLk6GJQsqaUBKTNV-1">
          <mxGeometry x="1040" y="631" width="60" height="30" as="geometry" />
        </mxCell>
        <mxCell id="-a_JBFkdTe1gn5dEIn_v-138" value="&lt;b&gt;0.n&lt;/b&gt;" style="text;html=1;align=center;verticalAlign=middle;whiteSpace=wrap;rounded=0;" vertex="1" parent="WIyWlLk6GJQsqaUBKTNV-1">
          <mxGeometry x="1341" y="401" width="60" height="30" as="geometry" />
        </mxCell>
        <mxCell id="-a_JBFkdTe1gn5dEIn_v-139" value="&lt;b&gt;0.n&lt;/b&gt;" style="text;html=1;align=center;verticalAlign=middle;whiteSpace=wrap;rounded=0;" vertex="1" parent="WIyWlLk6GJQsqaUBKTNV-1">
          <mxGeometry x="1227" y="382" width="60" height="30" as="geometry" />
        </mxCell>
        <mxCell id="-a_JBFkdTe1gn5dEIn_v-140" value="&lt;b&gt;1.1&lt;/b&gt;" style="text;html=1;align=center;verticalAlign=middle;whiteSpace=wrap;rounded=0;" vertex="1" parent="WIyWlLk6GJQsqaUBKTNV-1">
          <mxGeometry x="1416" y="503" width="60" height="30" as="geometry" />
        </mxCell>
        <mxCell id="-a_JBFkdTe1gn5dEIn_v-141" value="&lt;b&gt;2.2&lt;/b&gt;" style="text;html=1;align=center;verticalAlign=middle;whiteSpace=wrap;rounded=0;" vertex="1" parent="WIyWlLk6GJQsqaUBKTNV-1">
          <mxGeometry x="1359" y="521" width="60" height="30" as="geometry" />
        </mxCell>
        <mxCell id="-a_JBFkdTe1gn5dEIn_v-142" value="&lt;b&gt;1.1&lt;/b&gt;" style="text;html=1;align=center;verticalAlign=middle;whiteSpace=wrap;rounded=0;" vertex="1" parent="WIyWlLk6GJQsqaUBKTNV-1">
          <mxGeometry x="1359" y="585" width="60" height="30" as="geometry" />
        </mxCell>
        <mxCell id="-a_JBFkdTe1gn5dEIn_v-143" value="&lt;b&gt;1.1&lt;/b&gt;" style="text;html=1;align=center;verticalAlign=middle;whiteSpace=wrap;rounded=0;" vertex="1" parent="WIyWlLk6GJQsqaUBKTNV-1">
          <mxGeometry x="1530" y="503" width="60" height="30" as="geometry" />
        </mxCell>
        <mxCell id="-a_JBFkdTe1gn5dEIn_v-144" value="&lt;b&gt;0.n&lt;/b&gt;" style="text;html=1;align=center;verticalAlign=middle;whiteSpace=wrap;rounded=0;" vertex="1" parent="WIyWlLk6GJQsqaUBKTNV-1">
          <mxGeometry x="1476" y="503" width="60" height="30" as="geometry" />
        </mxCell>
        <mxCell id="-a_JBFkdTe1gn5dEIn_v-145" value="&lt;b&gt;0.n&lt;/b&gt;" style="text;html=1;align=center;verticalAlign=middle;whiteSpace=wrap;rounded=0;" vertex="1" parent="WIyWlLk6GJQsqaUBKTNV-1">
          <mxGeometry x="1181" y="699" width="60" height="30" as="geometry" />
        </mxCell>
        <mxCell id="-a_JBFkdTe1gn5dEIn_v-146" value="&lt;b&gt;0.n&lt;/b&gt;" style="text;html=1;align=center;verticalAlign=middle;whiteSpace=wrap;rounded=0;" vertex="1" parent="WIyWlLk6GJQsqaUBKTNV-1">
          <mxGeometry x="1706" y="408" width="60" height="30" as="geometry" />
        </mxCell>
        <mxCell id="-a_JBFkdTe1gn5dEIn_v-147" value="&lt;b&gt;1.1&lt;/b&gt;" style="text;html=1;align=center;verticalAlign=middle;whiteSpace=wrap;rounded=0;" vertex="1" parent="WIyWlLk6GJQsqaUBKTNV-1">
          <mxGeometry x="1707" y="273" width="60" height="30" as="geometry" />
        </mxCell>
        <mxCell id="-a_JBFkdTe1gn5dEIn_v-148" value="&lt;b&gt;0.n&lt;/b&gt;" style="text;html=1;align=center;verticalAlign=middle;whiteSpace=wrap;rounded=0;" vertex="1" parent="WIyWlLk6GJQsqaUBKTNV-1">
          <mxGeometry x="1449" y="909" width="60" height="30" as="geometry" />
        </mxCell>
        <mxCell id="-a_JBFkdTe1gn5dEIn_v-149" value="&lt;b&gt;1.1&lt;/b&gt;" style="text;html=1;align=center;verticalAlign=middle;whiteSpace=wrap;rounded=0;" vertex="1" parent="WIyWlLk6GJQsqaUBKTNV-1">
          <mxGeometry x="1280" y="945" width="60" height="30" as="geometry" />
        </mxCell>
        <mxCell id="-a_JBFkdTe1gn5dEIn_v-150" value="&lt;b&gt;0.1&lt;/b&gt;" style="text;html=1;align=center;verticalAlign=middle;whiteSpace=wrap;rounded=0;" vertex="1" parent="WIyWlLk6GJQsqaUBKTNV-1">
          <mxGeometry x="1282" y="1024" width="60" height="30" as="geometry" />
        </mxCell>
        <mxCell id="-a_JBFkdTe1gn5dEIn_v-151" value="&lt;b&gt;0.n&lt;/b&gt;" style="text;html=1;align=center;verticalAlign=middle;whiteSpace=wrap;rounded=0;" vertex="1" parent="WIyWlLk6GJQsqaUBKTNV-1">
          <mxGeometry x="1004" y="802" width="60" height="30" as="geometry" />
        </mxCell>
        <mxCell id="-a_JBFkdTe1gn5dEIn_v-152" value="&lt;b&gt;0.1&lt;/b&gt;" style="text;html=1;align=center;verticalAlign=middle;whiteSpace=wrap;rounded=0;" vertex="1" parent="WIyWlLk6GJQsqaUBKTNV-1">
          <mxGeometry x="888" y="847" width="60" height="30" as="geometry" />
        </mxCell>
        <mxCell id="-a_JBFkdTe1gn5dEIn_v-153" value="&lt;b&gt;1.1&lt;/b&gt;" style="text;html=1;align=center;verticalAlign=middle;whiteSpace=wrap;rounded=0;" vertex="1" parent="WIyWlLk6GJQsqaUBKTNV-1">
          <mxGeometry x="846" y="1063" width="60" height="30" as="geometry" />
        </mxCell>
        <mxCell id="-a_JBFkdTe1gn5dEIn_v-154" value="&lt;b&gt;0.n&lt;/b&gt;" style="text;html=1;align=center;verticalAlign=middle;whiteSpace=wrap;rounded=0;" vertex="1" parent="WIyWlLk6GJQsqaUBKTNV-1">
          <mxGeometry x="1283" y="1077" width="60" height="30" as="geometry" />
        </mxCell>
        <mxCell id="-a_JBFkdTe1gn5dEIn_v-155" value="&lt;b&gt;1.1&lt;/b&gt;" style="text;html=1;align=center;verticalAlign=middle;whiteSpace=wrap;rounded=0;" vertex="1" parent="WIyWlLk6GJQsqaUBKTNV-1">
          <mxGeometry x="1104" y="1184" width="60" height="30" as="geometry" />
        </mxCell>
        <mxCell id="-a_JBFkdTe1gn5dEIn_v-156" value="&lt;b&gt;1.1&lt;/b&gt;" style="text;html=1;align=center;verticalAlign=middle;whiteSpace=wrap;rounded=0;" vertex="1" parent="WIyWlLk6GJQsqaUBKTNV-1">
          <mxGeometry x="1473" y="667" width="60" height="30" as="geometry" />
        </mxCell>
        <mxCell id="-a_JBFkdTe1gn5dEIn_v-157" value="&lt;b&gt;1.1&lt;/b&gt;" style="text;html=1;align=center;verticalAlign=middle;whiteSpace=wrap;rounded=0;" vertex="1" parent="WIyWlLk6GJQsqaUBKTNV-1">
          <mxGeometry x="1560" y="1052" width="60" height="30" as="geometry" />
        </mxCell>
        <mxCell id="-a_JBFkdTe1gn5dEIn_v-158" value="&lt;b&gt;0.n&lt;/b&gt;" style="text;html=1;align=center;verticalAlign=middle;whiteSpace=wrap;rounded=0;" vertex="1" parent="WIyWlLk6GJQsqaUBKTNV-1">
          <mxGeometry x="1702" y="1052" width="60" height="30" as="geometry" />
        </mxCell>
        <mxCell id="-a_JBFkdTe1gn5dEIn_v-159" value="&lt;b&gt;1.1&lt;/b&gt;" style="text;html=1;align=center;verticalAlign=middle;whiteSpace=wrap;rounded=0;" vertex="1" parent="WIyWlLk6GJQsqaUBKTNV-1">
          <mxGeometry x="2220" y="956" width="60" height="30" as="geometry" />
        </mxCell>
        <mxCell id="-a_JBFkdTe1gn5dEIn_v-160" value="&lt;b&gt;0.n&lt;/b&gt;" style="text;html=1;align=center;verticalAlign=middle;whiteSpace=wrap;rounded=0;" vertex="1" parent="WIyWlLk6GJQsqaUBKTNV-1">
          <mxGeometry x="2215" y="1165" width="60" height="30" as="geometry" />
        </mxCell>
        <mxCell id="-a_JBFkdTe1gn5dEIn_v-161" value="&lt;b&gt;0.n&lt;/b&gt;" style="text;html=1;align=center;verticalAlign=middle;whiteSpace=wrap;rounded=0;" vertex="1" parent="WIyWlLk6GJQsqaUBKTNV-1">
          <mxGeometry x="1309" y="1182" width="60" height="30" as="geometry" />
        </mxCell>
        <mxCell id="-a_JBFkdTe1gn5dEIn_v-162" value="" style="endArrow=none;html=1;rounded=0;entryX=0.25;entryY=1;entryDx=0;entryDy=0;exitX=1;exitY=0.5;exitDx=0;exitDy=0;" edge="1" parent="WIyWlLk6GJQsqaUBKTNV-1">
          <mxGeometry width="50" height="50" relative="1" as="geometry">
            <mxPoint x="1577" y="1001" as="sourcePoint" />
            <mxPoint x="1795" y="819" as="targetPoint" />
            <Array as="points">
              <mxPoint x="1795" y="1001" />
            </Array>
          </mxGeometry>
        </mxCell>
        <mxCell id="-a_JBFkdTe1gn5dEIn_v-163" value="&lt;b&gt;0.n&lt;/b&gt;" style="text;html=1;align=center;verticalAlign=middle;whiteSpace=wrap;rounded=0;" vertex="1" parent="WIyWlLk6GJQsqaUBKTNV-1">
          <mxGeometry x="1563" y="972" width="60" height="30" as="geometry" />
        </mxCell>
        <mxCell id="-a_JBFkdTe1gn5dEIn_v-164" value="&lt;b&gt;1.1&lt;/b&gt;" style="text;html=1;align=center;verticalAlign=middle;whiteSpace=wrap;rounded=0;" vertex="1" parent="WIyWlLk6GJQsqaUBKTNV-1">
          <mxGeometry x="1739" y="829" width="60" height="30" as="geometry" />
        </mxCell>
        <mxCell id="-a_JBFkdTe1gn5dEIn_v-165" value="&lt;b&gt;1.1&lt;/b&gt;" style="text;html=1;align=center;verticalAlign=middle;whiteSpace=wrap;rounded=0;" vertex="1" parent="WIyWlLk6GJQsqaUBKTNV-1">
          <mxGeometry x="1848.5" y="830" width="60" height="30" as="geometry" />
        </mxCell>
        <mxCell id="-a_JBFkdTe1gn5dEIn_v-166" value="&lt;b&gt;0.n&lt;/b&gt;" style="text;html=1;align=center;verticalAlign=middle;whiteSpace=wrap;rounded=0;" vertex="1" parent="WIyWlLk6GJQsqaUBKTNV-1">
          <mxGeometry x="1823" y="1011" width="60" height="30" as="geometry" />
        </mxCell>
        <mxCell id="-a_JBFkdTe1gn5dEIn_v-167" value="&lt;b&gt;&lt;font style=&quot;font-size: 18px;&quot;&gt;responsable&lt;/font&gt;&lt;/b&gt;" style="text;html=1;align=center;verticalAlign=middle;whiteSpace=wrap;rounded=0;rotation=-90;" vertex="1" parent="WIyWlLk6GJQsqaUBKTNV-1">
          <mxGeometry x="1474" y="737" width="60" height="30" as="geometry" />
        </mxCell>
        <mxCell id="-a_JBFkdTe1gn5dEIn_v-168" value="&lt;font size=&quot;1&quot; style=&quot;&quot;&gt;&lt;b style=&quot;font-size: 18px;&quot;&gt;emetteur / destinataire&lt;/b&gt;&lt;/font&gt;" style="text;html=1;align=center;verticalAlign=middle;whiteSpace=wrap;rounded=0;" vertex="1" parent="WIyWlLk6GJQsqaUBKTNV-1">
          <mxGeometry x="1130" y="521" width="252" height="30" as="geometry" />
        </mxCell>
        <mxCell id="-a_JBFkdTe1gn5dEIn_v-169" value="&lt;b&gt;&lt;font style=&quot;font-size: 18px;&quot;&gt;auteur&lt;/font&gt;&lt;/b&gt;" style="text;html=1;align=center;verticalAlign=middle;whiteSpace=wrap;rounded=0;" vertex="1" parent="WIyWlLk6GJQsqaUBKTNV-1">
          <mxGeometry x="1299" y="588" width="60" height="30" as="geometry" />
        </mxCell>
        <mxCell id="-a_JBFkdTe1gn5dEIn_v-170" value="&lt;b&gt;&lt;font style=&quot;font-size: 14px;&quot;&gt;auteur&lt;/font&gt;&lt;/b&gt;" style="text;html=1;align=center;verticalAlign=middle;whiteSpace=wrap;rounded=0;rotation=-90;" vertex="1" parent="WIyWlLk6GJQsqaUBKTNV-1">
          <mxGeometry x="1531" y="465" width="60" height="30" as="geometry" />
        </mxCell>
        <mxCell id="-a_JBFkdTe1gn5dEIn_v-171" value="&lt;b&gt;&lt;font style=&quot;font-size: 18px;&quot;&gt;responsable&lt;/font&gt;&lt;/b&gt;" style="text;html=1;align=center;verticalAlign=middle;whiteSpace=wrap;rounded=0;rotation=-90;" vertex="1" parent="WIyWlLk6GJQsqaUBKTNV-1">
          <mxGeometry x="1739" y="894" width="60" height="30" as="geometry" />
        </mxCell>
        <mxCell id="-a_JBFkdTe1gn5dEIn_v-172" value="&lt;b&gt;&lt;font style=&quot;font-size: 18px;&quot;&gt;mise en oeuvre&lt;/font&gt;&lt;/b&gt;" style="text;html=1;align=center;verticalAlign=middle;whiteSpace=wrap;rounded=0;rotation=-90;" vertex="1" parent="WIyWlLk6GJQsqaUBKTNV-1">
          <mxGeometry x="1807" y="914" width="143" height="30" as="geometry" />
        </mxCell>
        <mxCell id="-a_JBFkdTe1gn5dEIn_v-173" value="&lt;b&gt;1.1&lt;/b&gt;" style="text;html=1;align=center;verticalAlign=middle;whiteSpace=wrap;rounded=0;" vertex="1" parent="WIyWlLk6GJQsqaUBKTNV-1">
          <mxGeometry x="1619" y="564" width="60" height="30" as="geometry" />
        </mxCell>
        <mxCell id="-a_JBFkdTe1gn5dEIn_v-174" value="&lt;b&gt;&lt;font style=&quot;font-size: 18px;&quot;&gt;auteur&lt;/font&gt;&lt;/b&gt;" style="text;html=1;align=center;verticalAlign=middle;whiteSpace=wrap;rounded=0;rotation=0;" vertex="1" parent="WIyWlLk6GJQsqaUBKTNV-1">
          <mxGeometry x="1661" y="563" width="60" height="30" as="geometry" />
        </mxCell>
        <mxCell id="-a_JBFkdTe1gn5dEIn_v-175" value="" style="endArrow=none;html=1;rounded=0;exitX=0;exitY=0.5;exitDx=0;exitDy=0;entryX=0.5;entryY=1;entryDx=0;entryDy=0;" edge="1" parent="WIyWlLk6GJQsqaUBKTNV-1" source="-a_JBFkdTe1gn5dEIn_v-74" target="-a_JBFkdTe1gn5dEIn_v-59">
          <mxGeometry width="50" height="50" relative="1" as="geometry">
            <mxPoint x="1390" y="959" as="sourcePoint" />
            <mxPoint x="1440" y="909" as="targetPoint" />
            <Array as="points">
              <mxPoint x="1050" y="1049" />
            </Array>
          </mxGeometry>
        </mxCell>
        <mxCell id="-a_JBFkdTe1gn5dEIn_v-176" value="" style="endArrow=none;html=1;rounded=0;entryX=0;entryY=0.5;entryDx=0;entryDy=0;exitX=0.25;exitY=0;exitDx=0;exitDy=0;" edge="1" parent="WIyWlLk6GJQsqaUBKTNV-1" source="-a_JBFkdTe1gn5dEIn_v-65" target="-a_JBFkdTe1gn5dEIn_v-39">
          <mxGeometry width="50" height="50" relative="1" as="geometry">
            <mxPoint x="1390" y="849" as="sourcePoint" />
            <mxPoint x="1440" y="799" as="targetPoint" />
            <Array as="points">
              <mxPoint x="1230" y="621" />
            </Array>
          </mxGeometry>
        </mxCell>
        <mxCell id="-a_JBFkdTe1gn5dEIn_v-177" value="" style="endArrow=none;html=1;rounded=0;entryX=0.25;entryY=1;entryDx=0;entryDy=0;exitX=0;exitY=0.5;exitDx=0;exitDy=0;" edge="1" parent="WIyWlLk6GJQsqaUBKTNV-1" source="-a_JBFkdTe1gn5dEIn_v-71" target="-a_JBFkdTe1gn5dEIn_v-65">
          <mxGeometry width="50" height="50" relative="1" as="geometry">
            <mxPoint x="1460" y="989" as="sourcePoint" />
            <mxPoint x="1510" y="939" as="targetPoint" />
            <Array as="points">
              <mxPoint x="1231" y="975" />
            </Array>
          </mxGeometry>
        </mxCell>
        <mxCell id="-a_JBFkdTe1gn5dEIn_v-178" value="&lt;b&gt;0.n&lt;/b&gt;" style="text;html=1;align=center;verticalAlign=middle;whiteSpace=wrap;rounded=0;" vertex="1" parent="WIyWlLk6GJQsqaUBKTNV-1">
          <mxGeometry x="1181" y="841" width="60" height="30" as="geometry" />
        </mxCell>
        <mxCell id="-a_JBFkdTe1gn5dEIn_v-179" value="" style="endArrow=none;html=1;rounded=0;exitX=1;exitY=0.5;exitDx=0;exitDy=0;entryX=0;entryY=0.5;entryDx=0;entryDy=0;" edge="1" parent="WIyWlLk6GJQsqaUBKTNV-1" source="-a_JBFkdTe1gn5dEIn_v-38" target="-a_JBFkdTe1gn5dEIn_v-85">
          <mxGeometry width="50" height="50" relative="1" as="geometry">
            <mxPoint x="1890" y="529" as="sourcePoint" />
            <mxPoint x="1940" y="479" as="targetPoint" />
          </mxGeometry>
        </mxCell>
        <mxCell id="-a_JBFkdTe1gn5dEIn_v-180" value="" style="endArrow=none;html=1;rounded=0;entryX=0.5;entryY=1;entryDx=0;entryDy=0;exitX=0.5;exitY=0;exitDx=0;exitDy=0;" edge="1" parent="WIyWlLk6GJQsqaUBKTNV-1" source="-a_JBFkdTe1gn5dEIn_v-56" target="-a_JBFkdTe1gn5dEIn_v-84">
          <mxGeometry width="50" height="50" relative="1" as="geometry">
            <mxPoint x="2270" y="799" as="sourcePoint" />
            <mxPoint x="2320" y="749" as="targetPoint" />
          </mxGeometry>
        </mxCell>
        <mxCell id="-a_JBFkdTe1gn5dEIn_v-181" value="" style="endArrow=none;html=1;rounded=0;entryX=1;entryY=0.5;entryDx=0;entryDy=0;exitX=0.75;exitY=0;exitDx=0;exitDy=0;" edge="1" parent="WIyWlLk6GJQsqaUBKTNV-1">
          <mxGeometry width="50" height="50" relative="1" as="geometry">
            <mxPoint x="2268" y="894" as="sourcePoint" />
            <mxPoint x="2161" y="621" as="targetPoint" />
            <Array as="points">
              <mxPoint x="2268" y="621" />
            </Array>
          </mxGeometry>
        </mxCell>
        <mxCell id="-a_JBFkdTe1gn5dEIn_v-182" value="" style="endArrow=none;html=1;rounded=0;entryX=0.5;entryY=1;entryDx=0;entryDy=0;exitX=1;exitY=0.5;exitDx=0;exitDy=0;" edge="1" parent="WIyWlLk6GJQsqaUBKTNV-1" source="-a_JBFkdTe1gn5dEIn_v-90" target="-a_JBFkdTe1gn5dEIn_v-56">
          <mxGeometry width="50" height="50" relative="1" as="geometry">
            <mxPoint x="2250" y="949" as="sourcePoint" />
            <mxPoint x="2300" y="899" as="targetPoint" />
            <Array as="points">
              <mxPoint x="2037" y="1080" />
            </Array>
          </mxGeometry>
        </mxCell>
        <mxCell id="-a_JBFkdTe1gn5dEIn_v-183" value="" style="endArrow=none;html=1;rounded=0;entryX=0.25;entryY=1;entryDx=0;entryDy=0;exitX=1;exitY=0.5;exitDx=0;exitDy=0;" edge="1" parent="WIyWlLk6GJQsqaUBKTNV-1">
          <mxGeometry width="50" height="50" relative="1" as="geometry">
            <mxPoint x="1943" y="1130" as="sourcePoint" />
            <mxPoint x="2186" y="954" as="targetPoint" />
            <Array as="points">
              <mxPoint x="2186" y="1127" />
            </Array>
          </mxGeometry>
        </mxCell>
        <mxCell id="-a_JBFkdTe1gn5dEIn_v-184" value="" style="endArrow=none;html=1;rounded=0;entryX=0.75;entryY=1;entryDx=0;entryDy=0;exitX=0.75;exitY=0;exitDx=0;exitDy=0;" edge="1" parent="WIyWlLk6GJQsqaUBKTNV-1" source="-a_JBFkdTe1gn5dEIn_v-102" target="-a_JBFkdTe1gn5dEIn_v-99">
          <mxGeometry width="50" height="50" relative="1" as="geometry">
            <mxPoint x="2350" y="1089" as="sourcePoint" />
            <mxPoint x="2400" y="1039" as="targetPoint" />
          </mxGeometry>
        </mxCell>
        <mxCell id="-a_JBFkdTe1gn5dEIn_v-185" value="&lt;b&gt;0.n&lt;/b&gt;" style="text;html=1;align=center;verticalAlign=middle;whiteSpace=wrap;rounded=0;" vertex="1" parent="WIyWlLk6GJQsqaUBKTNV-1">
          <mxGeometry x="1534" y="674" width="60" height="30" as="geometry" />
        </mxCell>
        <mxCell id="-a_JBFkdTe1gn5dEIn_v-186" value="&lt;b&gt;1.1&lt;/b&gt;" style="text;html=1;align=center;verticalAlign=middle;whiteSpace=wrap;rounded=0;" vertex="1" parent="WIyWlLk6GJQsqaUBKTNV-1">
          <mxGeometry x="1692" y="768" width="60" height="30" as="geometry" />
        </mxCell>
        <mxCell id="-a_JBFkdTe1gn5dEIn_v-187" value="&lt;b&gt;0.n&lt;/b&gt;" style="text;html=1;align=center;verticalAlign=middle;whiteSpace=wrap;rounded=0;" vertex="1" parent="WIyWlLk6GJQsqaUBKTNV-1">
          <mxGeometry x="1867" y="564" width="60" height="30" as="geometry" />
        </mxCell>
        <mxCell id="-a_JBFkdTe1gn5dEIn_v-188" value="&lt;b&gt;0.1&lt;/b&gt;" style="text;html=1;align=center;verticalAlign=middle;whiteSpace=wrap;rounded=0;" vertex="1" parent="WIyWlLk6GJQsqaUBKTNV-1">
          <mxGeometry x="2155" y="587" width="60" height="30" as="geometry" />
        </mxCell>
        <mxCell id="-a_JBFkdTe1gn5dEIn_v-189" value="&lt;b&gt;0.n&lt;/b&gt;" style="text;html=1;align=center;verticalAlign=middle;whiteSpace=wrap;rounded=0;" vertex="1" parent="WIyWlLk6GJQsqaUBKTNV-1">
          <mxGeometry x="1990" y="674" width="60" height="30" as="geometry" />
        </mxCell>
        <mxCell id="-a_JBFkdTe1gn5dEIn_v-190" value="&lt;b&gt;0.1&lt;/b&gt;" style="text;html=1;align=center;verticalAlign=middle;whiteSpace=wrap;rounded=0;" vertex="1" parent="WIyWlLk6GJQsqaUBKTNV-1">
          <mxGeometry x="1990" y="865" width="60" height="30" as="geometry" />
        </mxCell>
        <mxCell id="-a_JBFkdTe1gn5dEIn_v-191" value="&lt;b&gt;0.n&lt;/b&gt;" style="text;html=1;align=center;verticalAlign=middle;whiteSpace=wrap;rounded=0;" vertex="1" parent="WIyWlLk6GJQsqaUBKTNV-1">
          <mxGeometry x="2216" y="866" width="60" height="30" as="geometry" />
        </mxCell>
        <mxCell id="-a_JBFkdTe1gn5dEIn_v-192" value="&lt;b&gt;1.1&lt;/b&gt;" style="text;html=1;align=center;verticalAlign=middle;whiteSpace=wrap;rounded=0;" vertex="1" parent="WIyWlLk6GJQsqaUBKTNV-1">
          <mxGeometry x="1991" y="955" width="60" height="30" as="geometry" />
        </mxCell>
        <mxCell id="-a_JBFkdTe1gn5dEIn_v-193" value="&lt;b&gt;0.1&lt;/b&gt;" style="text;html=1;align=center;verticalAlign=middle;whiteSpace=wrap;rounded=0;" vertex="1" parent="WIyWlLk6GJQsqaUBKTNV-1">
          <mxGeometry x="2141" y="956" width="60" height="30" as="geometry" />
        </mxCell>
        <mxCell id="-a_JBFkdTe1gn5dEIn_v-194" value="&lt;b&gt;0.n&lt;/b&gt;" style="text;html=1;align=center;verticalAlign=middle;whiteSpace=wrap;rounded=0;" vertex="1" parent="WIyWlLk6GJQsqaUBKTNV-1">
          <mxGeometry x="1936" y="1051" width="60" height="30" as="geometry" />
        </mxCell>
        <mxCell id="-a_JBFkdTe1gn5dEIn_v-195" value="&lt;b&gt;0.1&lt;/b&gt;" style="text;html=1;align=center;verticalAlign=middle;whiteSpace=wrap;rounded=0;" vertex="1" parent="WIyWlLk6GJQsqaUBKTNV-1">
          <mxGeometry x="1936" y="1094" width="60" height="30" as="geometry" />
        </mxCell>
      </root>
    </mxGraphModel>
  </diagram>
</mxfile>
